# xmcd
# 
# Track frame offsets:
#     150
#     31565
#     57943
#     73464
#     89409
#     110807
#     127548
#     150325
#     184453
#     204562
# 
# Disc length: 3137
# 
# Revision: 1
# Processed by: cddbd v1.5.2PL0 Copyright (c) Steve Scherf et al.
# Submitted via: fre:ac v1.0.27
# 
DISCID=850c3f0a
DTITLE=Tingvall Trio - Vägen
DYEAR=2011
DGENRE=Jazz
TTITLE0=Sevilla
TTITLE1=Vägen
TTITLE2=Högtid
TTITLE3=Tuc-Tuc Man
TTITLE4=Den Ensamme Mannen
TTITLE5=Pa Väg
TTITLE6=Shejk Schröder
TTITLE7=Vaggvisa Morgon
TTITLE8=Tidevarv
TTITLE9=Efter Livet
EXTD=
EXTT0=
EXTT1=
EXTT2=
EXTT3=
EXTT4=
EXTT5=
EXTT6=
EXTT7=
EXTT8=
EXTT9=
PLAYORDER=
